<svg version="1.1" xmlns="http://www.w3.org/2000/svg" xmlns:xlink="http://www.w3.org/1999/xlink" width="1560" height="804"><defs/><g><path fill="none" stroke="orange" paint-order="fill stroke markers" d=" M 20 416.49345651289445 L 21 417.19956067102623 L 22 417.9029627250703 L 23 418.60353762762514 L 24 419.30116083388646 L 25 419.9957083237884 L 26 420.68705662405074 L 27 421.37508283012994 L 28 422.05966462806805 L 29 422.7406803162374 L 30 423.4180088269758 L 31 424.09152974810974 L 32 424.7611233443605 L 33 425.42667057862997 L 34 426.08805313316276 L 35 426.74515343058 L 36 427.39785465478155 L 37 428.04604077171336 L 38 428.6895965499951 L 39 429.32840758140554 L 40 429.96236030122157 L 41 430.59134200840714 L 42 431.2152408856486 L 43 431.8339460192332 L 44 432.4473474187667 L 45 433.05533603672694 L 46 433.6578037878498 L 47 434.25464356834397 L 48 434.84574927493156 L 49 435.4310158237104 L 50 436.0103391688355 L 51 436.58361632101577 L 52 437.1507453658228 L 53 437.71162548180905 L 54 438.266156958431 L 55 438.81424121377563 L 56 439.3557808120854 L 57 439.8906794810803 L 58 440.41884212907235 L 59 440.94017486187073 L 60 441.45458499947375 L 61 441.9619810925451 L 62 442.4622729386713 L 63 442.9553715983973 L 64 443.4411894110378 L 65 443.91964001026116 L 66 444.3906383394433 L 67 444.8541006667883 L 68 445.30994460021424 L 69 445.75808910200016 L 70 446.19845450319264 L 71 446.6309625177691 L 72 447.0555362565549 L 73 447.47210024089253 L 74 447.8805804160597 L 75 448.28090416443433 L 76 448.67300031840443 L 77 449.0567991730197 L 78 449.4322324983836 L 79 449.79923355178255 L 80 450.1577370895514 L 81 450.5076793786721 L 82 450.8489982081038 L 83 451.18163289984244 L 84 451.5055243197078 L 85 451.820614887856 L 86 452.1268485890159 L 87 452.4241709824472 L 88 452.7125292116186 L 89 452.9918720136043 L 90 453.2621497281974 L 91 453.5233143067385 L 92 453.77531932065676 L 93 454.01811996972464 L 94 454.25167309002177 L 95 454.47593716160856 L 96 454.69087231590737 L 97 454.8964403427902 L 98 455.09260469737137 L 99 455.2793305065046 L 100 455.45658457498223 L 101 455.62433539143666 L 102 455.7825531339424 L 103 455.93120967531746 L 104 456.07027858812376 L 105 456.1997351493653 L 106 456.3195563448833 L 107 456.4297208734474 L 108 456.53020915054276 L 109 456.6210033118513 L 110 456.7020872164281 L 111 456.7734464495702 L 112 456.83506832537967 L 113 456.8869418890187 L 114 456.92905791865707 L 115 456.96140892711145 L 116 456.9839891631767 L 117 456.99679461264816 L 118 456.9998229990351 L 119 456.99307378396577 L 120 456.9765481672828 L 121 456.95024908683007 L 122 456.9141812179305 L 123 456.86835097255454 L 124 456.81276649818074 L 125 456.7474376763471 L 126 456.67237612089417 L 127 456.5875951759009 L 128 456.49310991331197 L 129 456.38893713025857 L 130 456.2750953460722 L 131 456.1516047989924 L 132 456.01848744256904 L 133 455.87576694175925 L 134 455.72346866872067 L 135 455.5616196983007 L 136 455.39024880322347 L 137 455.2093864489744 L 138 455.01906478838464 L 139 454.8193176559148 L 140 454.61018056164016 L 141 454.39169068493777 L 142 454.16388686787684 L 143 453.92680960831393 L 144 453.6805010526929 L 145 453.4250049885527 L 146 453.160366836743 L 147 452.8866336433492 L 148 452.60385407132947 L 149 452.3120783918627 L 150 452.0113584754125 L 151 451.7017477825052 L 152 451.3833013542265 L 153 451.0560758024359 L 154 450.72012929970305 L 155 450.3755215689659 L 156 450.0223138729134 L 157 449.6605690030946 L 158 449.29035126875584 L 159 448.91172648540817 L 160 448.52476196312705 L 161 448.129526494586 L 162 447.72609034282755 L 163 447.31452522877163 L 164 446.8949043184657 L 165 446.46730221007743 L 166 446.0317949206334 L 167 445.5884598725046 L 168 445.13737587964306 L 169 444.67862313357074 L 170 444.212283189123 L 171 443.7384389499507 L 172 443.2571746537817 L 173 442.7685758574456 L 174 442.2727294216638 L 175 441.7697234956079 L 176 441.2596475012287 L 177 440.74259211735966 L 178 440.2186492635962 L 179 439.6879120839546 L 180 439.1504749303133 L 181 438.6064333456398 L 182 438.05588404700524 L 183 437.4989249083904 L 184 436.9356549432864 L 185 436.3661742870924 L 186 435.7905841793141 L 187 435.2089869455659 L 188 434.6214859793797 L 189 434.0281857238245 L 190 433.4291916529386 L 191 432.82461025297926 L 192 432.214549003492 L 193 431.5991163582032 L 194 430.9784217257402 L 195 430.35257545018055 L 196 429.7216887914361 L 197 429.0858739054735 L 198 428.44524382437567 L 199 427.79991243624755 L 200 427.14999446496967 L 201 426.4956054498029 L 202 425.8368617248488 L 203 425.1738803983679 L 204 424.50677933196096 L 205 423.83567711961626 L 206 423.1606930666262 L 207 422.48194716837804 L 208 421.79956008902167 L 209 421.11365314001836 L 210 420.4243482585748 L 211 419.7317679859655 L 212 419.0360354457483 L 213 418.3372743218758 L 214 417.63560883670726 L 215 416.9311637289255 L 216 416.22406423136107 L 217 415.51443604872895 L 218 414.8024053352815 L 219 414.0880986723814 L 220 413.3716430459986 L 221 412.65316582413516 L 222 411.93279473418283 L 223 411.2106578402158 L 224 410.4868835202244 L 225 409.7616004432927 L 226 409.03493754672417 L 227 408.3070240131198 L 228 407.5779892474131 L 229 406.84796285386443 L 230 406.117074613021 L 231 405.3854544586452 L 232 404.6532324546154 L 233 403.92053877180376 L 234 403.18750366493526 L 235 402.45425744943174 L 236 401.72093047824467 L 237 400.98765311868203 L 238 400.2545557292321 L 239 399.52176863638874 L 240 398.7894221114831 L 241 398.05764634752404 L 242 397.3265714360535 L 243 396.596327344019 L 244 395.8670438906694 L 245 395.13885072447556 L 246 394.41187730008255 L 247 393.6862528552955 L 248 392.9621063881047 L 249 392.2395666337527 L 250 391.5187620418483 L 251 390.7998207535318 L 252 390.0828705786941 L 253 389.368038973256 L 254 388.655453016509 L 255 387.94523938852427 L 256 387.2375243476318 L 257 386.532433707975 L 258 385.8300928171438 L 259 385.13062653389125 L 260 384.4341592059367 L 261 383.7408146478596 L 262 383.05071611908875 L 263 382.36398630198937 L 264 381.68074728005377 L 265 381.0011205161974 L 266 380.32522683116605 L 267 379.6531863820571 L 268 378.98511864095804 L 269 378.32114237370786 L 270 377.6613756187831 L 271 377.0059356663137 L 272 376.35493903723153 L 273 375.7085014625561 L 274 375.0667378628205 L 275 374.429762327641 L 276 373.7976880954352 L 277 373.1706275332907 L 278 372.5486921169893 L 279 371.9319924111892 L 280 371.32063804976946 L 281 370.71473771633976 L 282 370.11439912491915 L 283 369.51972900078715 L 284 368.9308330615108 L 285 368.34781599815045 L 286 367.7707814566486 L 287 367.19983201940397 L 288 366.635069187035 L 289 366.07659336033555 L 290 365.52450382242625 L 291 364.9788987211041 L 292 364.43987505139467 L 293 363.90752863830846 L 294 363.3819541198057 L 295 362.8632449299722 L 296 362.35149328240885 L 297 361.8467901538385 L 298 361.34922526793264 L 299 360.8588870793604 L 300 360.37586275806393 L 301 359.9002381737616 L 302 359.4320978806823 L 303 358.9715251025341 L 304 358.518601717709 L 305 358.073408244727 L 306 357.63602382792175 L 307 357.20652622337116 L 308 356.7849917850736 L 309 356.3714954513746 L 310 355.96611073164445 L 311 355.5689096932101 L 312 355.1799629485434 L 313 354.7993396427079 L 314 354.42710744106654 L 315 354.06333251725266 L 316 353.70807954140577 L 317 353.36141166867475 L 318 353.0233905279906 L 319 352.6940762111104 L 320 352.37352726193427 L 321 352.0618006660977 L 322 351.7589518408413 L 323 351.46503462515847 L 324 351.18010127022467 L 325 350.9042024301081 L 326 350.63738715276475 L 327 350.37970287131907 L 328 350.13119539563127 L 329 349.89190890415364 L 330 349.6618859360766 L 331 349.4411673837666 L 332 349.2297924854959 L 333 349.0277988184676 L 334 348.8352222921349 L 335 348.65209714181753 L 336 348.47845592261547 L 337 348.3143295036214 L 338 348.15974706243327 L 339 348.01473607996667 L 340 347.87932233556995 L 341 347.753529902441 L 342 347.63738114334785 L 343 347.5308967066527 L 344 347.43409552264177 L 345 347.34699480015945 L 346 347.2696100235492 L 347 347.2019549499009 L 348 347.1440416066049 L 349 347.09588028921416 L 350 347.05747955961397 L 351 347.0288462444994 L 352 347.0099854341622 L 353 347.00090048158575 L 354 347.0015930018487 L 355 347.0120628718381 L 356 347.0323082302715 L 357 347.0623254780272 L 358 347.1021092787848 L 359 347.1516525599733 L 360 347.21094651402876 L 361 347.27998059995997 L 362 347.3587425452224 L 363 347.4472183478998 L 364 347.54539227919366 L 365 347.6532468862192 L 366 347.77076299510816 L 367 347.89791971441724 L 368 348.03469443884245 L 369 348.1810628532374 L 370 348.33699893693614 L 371 348.502474968379 L 372 348.67746153004055 L 373 348.8619275136596 L 374 349.0558401257694 L 375 349.2591648935274 L 376 349.47186567084367 L 377 349.6939046448069 L 378 349.9252423424065 L 379 350.16583763755 L 380 350.4156477583741 L 381 350.6746282948486 L 382 350.9427332066714 L 383 351.219914831453 L 384 351.5061238931903 L 385 351.8013095110261 L 386 352.1054192082945 L 387 352.4183989218505 L 388 352.7401930116803 L 389 353.07074427079317 L 390 353.4099939353916 L 391 353.7578816953174 L 392 354.11434570477405 L 393 354.4793225933209 L 394 354.852747477139 L 395 355.23455397056586 L 396 355.6246741978971 L 397 356.02303880545304 L 398 356.4295769739083 L 399 356.84421643088143 L 400 357.2668834637831 L 401 357.69750293292077 L 402 358.13599828485627 L 403 358.58229156601516 L 404 359.0363034365452 L 405 359.4979531844207 L 406 359.96715873979116 L 407 360.4438366895714 L 408 360.92790229227035 L 409 361.41926949305554 L 410 361.9178509390523 L 411 362.4235579948721 L 412 362.93630075837024 L 413 363.4559880766282 L 414 363.982527562158 L 415 364.51582560932684 L 416 365.05578741099754 L 417 365.6023169753829 L 418 366.1553171431111 L 419 366.71468960449755 L 420 367.2803349170223 L 421 367.85215252300856 L 422 368.43004076749895 L 423 369.0138969163276 L 424 369.60361717438354 L 425 370.199096704063 L 426 370.80022964390673 L 427 371.4069091274198 L 428 372.0190273020697 L 429 372.63647534845956 L 430 373.2591434996742 L 431 373.88692106079327 L 432 374.51969642857034 L 433 375.1573571112734 L 434 375.79978974868266 L 435 376.44688013224334 L 436 377.09851322536946 L 437 377.754573183894 L 438 378.41494337666325 L 439 379.0795064062711 L 440 379.74814412992924 L 441 380.42073768047004 L 442 381.09716748747815 L 443 381.7773132985472 L 444 382.46105420065766 L 445 383.14826864167213 L 446 383.8388344519444 L 447 384.53262886603807 L 448 385.2295285445513 L 449 385.9294095960431 L 450 386.63214759905907 L 451 387.33761762424933 L 452 388.04569425657843 L 453 388.7562516176212 L 454 389.46916338794045 L 455 390.1843028295434 L 456 390.9015428084129 L 457 391.6207558171084 L 458 392.34181399743346 L 459 393.06458916316654 L 460 393.7889528228482 L 461 394.51477620262455 L 462 395.24193026913974 L 463 395.9702857524748 L 464 396.6997131691288 L 465 397.4300828450377 L 466 398.161264938627 L 467 398.8931294638949 L 468 399.6255463135199 L 469 400.358385281991 L 470 401.0915160887551 L 471 401.8248084013774 L 472 402.55813185871136 L 473 403.2913560940737 L 474 404.0243507584205 L 475 404.7569855435195 L 476 405.48913020511645 L 477 406.22065458608853 L 478 406.9514286395836 L 479 407.681322452139 L 480 408.41020626677715 L 481 409.1379505060728 L 482 409.864425795189 L 483 410.5895029848767 L 484 411.31305317443383 L 485 412.03494773462137 L 486 412.75505833052995 L 487 413.47325694439445 L 488 414.18941589835305 L 489 414.9034078771444 L 490 415.61510595074174 L 491 416.3243835969174 L 492 417.0311147237357 L 493 417.7351736919688 L 494 418.4364353374322 L 495 419.1347749932358 L 496 419.83006851194676 L 497 420.5221922876596 L 498 421.2110232779704 L 499 421.89643902585067 L 500 422.5783176814171 L 501 423.25653802359335 L 502 423.93097948166053 L 503 424.60152215669126 L 504 425.2680468428648 L 505 425.9304350486592 L 506 426.5885690179157 L 507 427.24233175077296 L 508 427.8916070244672 L 509 428.53627941399304 L 510 429.1762343126235 L 511 429.8113579522843 L 512 430.441537423779 L 513 431.06666069686116 L 514 431.68661664015104 L 515 432.3012950408913 L 516 432.9105866245409 L 517 433.5143830742006 L 518 434.11257704986974 L 519 434.70506220752804 L 520 435.2917332180414 L 521 435.8724857858861 L 522 436.44721666769107 L 523 437.0158236905909 L 524 437.57820577039 L 525 438.1342629295334 L 526 438.6838963148794 L 527 439.2270082152737 L 528 439.7635020789201 L 529 440.2932825305447 L 530 440.8162553883512 L 531 441.3323276807647 L 532 441.84140766295894 L 533 442.3434048331668 L 534 442.8382299487691 L 535 443.32579504215954 L 536 443.8060134363834 L 537 444.2787997605466 L 538 444.74406996499204 L 539 445.2017413362423 L 540 445.6517325117034 L 541 446.09396349412924 L 542 446.52835566584326 L 543 446.9548318027145 L 544 447.37331608788634 L 545 447.78373412525474 L 546 448.1860129526939 L 547 448.58008105502734 L 548 448.96586837674147 L 549 449.3433063344396 L 550 449.71232782903434 L 551 450.0728672576764 L 552 450.4248605254169 L 553 450.7682450566019 L 554 451.10295980599705 L 555 451.4289452696395 L 556 451.7461434954164 L 557 452.05449809336756 L 558 452.35395424570993 L 559 452.6444587165828 L 560 452.9259598615121 L 561 453.19840763659124 L 562 453.4617536073777 L 563 453.71595095750365 L 564 453.96095449699845 L 565 454.1967206703227 L 566 454.42320756411095 L 567 454.64037491462295 L 568 454.84818411490176 L 569 455.0465982216368 L 570 455.2355819617317 L 571 455.41510173857495 L 572 455.5851256380122 L 573 455.7456234340203 L 574 455.89656659408035 L 575 456.03792828425054 L 576 456.16968337393587 L 577 456.2918084403563 L 578 456.40428177271065 L 579 456.50708337603595 L 580 456.6001949747624 L 581 456.68360001596216 L 582 456.75728367229203 L 583 456.8212328446293 L 584 456.8754361644007 L 585 456.9198839956033 L 586 456.9545684365174 L 587 456.97948332111156 L 588 456.99462422013863 L 589 456.99998844192305 L 590 456.99557503283955 L 591 456.98138477748256 L 592 456.9574201985268 L 593 456.92368555627866 L 594 456.8801868479191 L 595 456.8269318064372 L 596 456.76392989925574 L 597 456.6911923265477 L 598 456.6087320192457 L 599 456.5165636367426 L 600 456.414703564286 L 601 456.30316991006487 L 602 456.1819825019907 L 603 456.0511628841724 L 604 455.9107343130864 L 605 455.7607217534421 L 606 455.6011518737439 L 607 455.43205304155026 L 608 455.25345531843027 L 609 455.06539045462 L 610 454.8678918833777 L 611 454.66099471504026 L 612 454.4447357307816 L 613 454.2191533760738 L 614 453.98428775385247 L 615 453.7401806173875 L 616 453.4868753628602 L 617 453.22441702164855 L 618 452.95285225232215 L 619 452.6722293323469 L 620 452.38259814950277 L 621 452.08401019301516 L 622 451.7765185444009 L 623 451.46017786803225 L 624 451.1350444014183 L 625 450.8011759452082 L 626 450.45863185291466 L 627 450.1074730203631 L 628 449.7477618748655 L 629 449.3795623641226 L 630 449.0029399448554 L 631 448.6179615711689 L 632 448.2246956826488 L 633 447.8232121921951 L 634 447.4135824735932 L 635 446.99587934882527 L 636 446.5701770751245 L 637 446.13655133177394 L 638 445.6950792066526 L 639 445.2458391825311 L 640 444.7889111231194 L 641 444.3243762588691 L 642 443.8523171725326 L 643 443.372817784482 L 644 442.8859633377901 L 645 442.3918403830762 L 646 441.8905367631199 L 647 441.3821415972443 L 648 440.8667452654733 L 649 440.34443939246404 L 650 439.8153168312184 L 651 439.27947164657576 L 652 438.73699909849114 L 653 438.1879956250998 L 654 437.6325588255735 L 655 437.07078744276913 L 656 436.5027813456752 L 657 435.9286415116575 L 658 435.3484700085076 L 659 434.7623699762982 L 660 434.1704456090469 L 661 433.5728021361934 L 662 432.96954580389206 L 663 432.3607838561243 L 664 431.74662451563313 L 665 431.12717696468366 L 666 430.50255132565366 L 667 429.872858641456 L 668 429.23821085579823 L 669 428.598720793282 L 670 427.9545021393452 L 671 427.3056694200519 L 672 426.65233798173216 L 673 425.9946239704767 L 674 425.3326443114884 L 675 424.6665166882966 L 676 423.9963595218355 L 677 423.3222919493918 L 678 422.64443380342544 L 679 421.9629055902658 L 680 421.2778284686892 L 681 420.5893242283797 L 682 419.89751526827774 L 683 419.2025245748208 L 684 418.5044757000797 L 685 417.80349273979346 L 686 417.0997003113089 L 687 416.39322353142643 L 688 415.68418799415736 L 689 414.97271974839646 L 690 414.2589452755136 L 691 413.5429914668685 L 692 412.8249856012526 L 693 412.10505532226205 L 694 411.38332861560605 L 695 410.6599337863537 L 696 409.93499943612517 L 697 409.2086544402287 L 698 408.4810279247508 L 699 407.7522492435999 L 700 407.0224479555112 L 701 406.29175380101384 L 702 405.5602966793661 L 703 404.8282066254634 L 704 404.09561378672043 L 705 403.3626483999347 L 706 402.62944076813335 L 707 401.89612123740886 L 708 401.16282017374624 L 709 400.4296679398479 L 710 399.6967948719577 L 711 398.9643312566909 L 712 398.2324073078722 L 713 397.5011531433872 L 714 396.77069876205013 L 715 396.0411740204939 L 716 395.3127086100845 L 717 394.58543203386523 L 718 393.8594735835342 L 719 393.1349623164596 L 720 392.4120270327361 L 721 391.690796252288 L 722 390.9713981920211 L 723 390.2539607430294 L 724 389.5386114478585 L 725 388.82547747783264 L 726 388.1146856104458 L 727 387.4063622068247 L 728 386.7006331892646 L 729 385.997624018843 L 730 385.2974596731167 L 731 384.60026462390294 L 732 383.906162815152 L 733 383.21527764091303 L 734 382.52773192339737 L 735 381.8436478911439 L 736 381.16314715729027 L 737 380.4863506979521 L 738 379.8133788307177 L 739 379.14435119325753 L 740 378.47938672205635 L 741 377.81860363126873 L 742 377.162119391704 L 743 376.5100507099421 L 744 375.8625135075871 L 745 375.21962290065835 L 746 374.5814931791261 L 747 373.9482377865935 L 748 373.31996930012934 L 749 372.696799410254 L 750 372.0788389010847 L 751 371.4661976306397 L 752 370.8589845113094 L 753 370.2573074904935 L 754 369.6612735314108 L 755 369.07098859408444 L 756 368.4865576165042 L 757 367.90808449597114 L 758 367.33567207062777 L 759 366.76942210117545 L 760 366.2094352527839 L 761 365.6558110771959 L 762 365.10864799502895 L 763 364.5680432782789 L 764 364.034093033027 L 765 363.50689218235516 L 766 362.98653444947047 L 767 362.47311234104376 L 768 361.9667171307645 L 769 361.467438843114 L 770 360.97536623736187 L 771 360.4905867917864 L 772 360.0131866881234 L 773 359.5432507962451 L 774 359.0808626590723 L 775 358.62610447772266 L 776 358.17905709689757 L 777 357.7397999905093 L 778 357.3084112475534 L 779 356.88496755822564 L 780 356.469544200289 L 781 356.0622150256908 L 782 355.6630524474337 L 783 355.27212742670247 L 784 354.8895094602491 L 785 354.51526656803753 L 786 354.149465281152 L 787 353.7921706299689 L 788 353.44344613259636 L 789 353.10335378358207 L 790 352.77195404289233 L 791 352.4493058251639 L 792 352.1354664892301 L 793 351.8304918279241 L 794 351.5344360581603 L 795 351.24735181129563 L 796 350.9692901237736 L 797 350.7003004280507 L 798 350.4404305438089 L 799 350.1897266694542 L 800 349.94823337390403 L 801 349.7159935886638 L 802 349.4930486001948 L 803 349.2794380425745 L 804 349.0751998904504 L 805 348.8803704522896 L 806 348.6949843639234 L 807 348.51907458239043 L 808 348.3526723800774 L 809 348.19580733915984 L 810 348.04850734634294 L 811 347.91079858790425 L 812 347.782705545038 L 813 347.66425098950344 L 814 347.5554559795762 L 815 347.45633985630485 L 816 347.36692024007243 L 817 347.2872130274642 L 818 347.2172323884413 L 819 347.1569907638219 L 820 347.10649886306953 L 821 347.06576566238914 L 822 347.0347984031313 L 823 347.01360259050495 L 824 347.0021819925988 L 825 347.0005386397113 L 826 347.00867282398974 L 827 347.02658309937823 L 828 347.05426628187513 L 829 347.0917174500986 L 830 347.13892994616185 L 831 347.1958953768566 L 832 347.2626036151451 L 833 347.33904280196083 L 834 347.42519934831626 L 835 347.521057937719 L 836 347.6266015288944 L 837 347.7418113588154 L 838 347.866666946038 L 839 348.001146094342 L 840 348.1452248966775 L 841 348.2988777394148 L 842 348.4620773068975 L 843 348.63479458629905 L 844 348.8169988727802 L 845 349.00865777494766 L 846 349.20973722061245 L 847 349.4202014628473 L 848 349.640013086341 L 849 349.8691330140508 L 850 350.10752051414835 L 851 350.3551332072615 L 852 350.6119270740081 L 853 350.87785646282157 L 854 351.1528740980664 L 855 351.43693108844286 L 856 351.7299769356786 L 857 352.03195954350593 L 858 352.34282522692325 L 859 352.66251872173893 L 860 352.9909831943958 L 861 353.328160252075 L 862 353.67398995307644 L 863 354.0284108174753 L 864 354.3913598380513 L 865 354.76277249149007 L 866 355.14258274985366 L 867 355.53072309231857 L 868 355.9271245171796 L 869 356.33171655411627 L 870 356.744427276721 L 871 357.1651833152857 L 872 357.5939098698448 L 873 358.0305307234735 L 874 358.47496825583653 L 875 358.92714345698755 L 876 359.38697594141513 L 877 359.8543839623331 L 878 360.3292844262132 L 879 360.811592907557 L 880 361.3012236639047 L 881 361.7980896510782 L 882 362.30210253865505 L 883 362.8131727256715 L 884 363.3312093565515 L 885 363.8561203372583 L 886 364.3878123516666 L 887 364.92619087815217 L 888 365.47116020639476 L 889 366.0226234543936 L 890 366.58048258569033 L 891 367.14463842679754 L 892 367.7149906848292 L 893 368.29143796533066 L 894 368.8738777903035 L 895 369.46220661642394 L 896 370.05631985345013 L 897 370.6561118828158 L 898 371.26147607640655 L 899 371.8723048155157 L 900 372.4884895099761 L 901 373.1099206174649 L 902 373.7364876629776 L 903 374.3680792584672 L 904 375.0045831226471 L 905 375.645886100951 L 906 376.29187418564953 L 907 376.94243253611796 L 908 377.59744549925176 L 909 378.256796630027 L 910 378.9203687122016 L 911 379.588043779153 L 912 380.25970313485 L 913 380.9352273749538 L 914 381.61449640804534 L 915 382.29738947697444 L 916 382.98378518032746 L 917 383.6735614940093 L 918 384.3665957929364 L 919 385.0627648728365 L 920 385.7619449721511 L 921 386.46401179403733 L 922 387.16884052846484 L 923 387.8763058744038 L 924 388.58628206210045 L 925 389.29864287543575 L 926 390.0132616743634 L 927 390.7300114174236 L 928 391.44876468432756 L 929 392.1693936986096 L 930 392.891770350343 L 931 393.61576621891436 L 932 394.3412525958538 L 933 395.06810050771634 L 934 395.7961807390096 L 935 396.5253638551657 L 936 397.2555202255511 L 937 397.98652004651177 L 938 398.71823336444925 L 939 399.45053009892314 L 940 400.183280065776 L 941 400.91635300027684 L 942 401.64961858027914 L 943 402.3829464493888 L 944 403.1162062401382 L 945 403.8492675971625 L 946 404.5820002003734 L 947 405.3142737881267 L 948 406.0459581803799 L 949 406.7769233018348 L 950 407.5070392050615 L 951 408.2361760936003 L 952 408.9642043450358 L 953 409.69099453404067 L 954 410.41641745538436 L 955 411.14034414690246 L 956 411.86264591242326 L 957 412.5831943446463 L 958 413.30186134797026 L 959 414.01851916126503 L 960 414.73304038058467 L 961 415.44529798181634 L 962 416.15516534326264 L 963 416.862516268151 L 964 417.5672250070689 L 965 418.2691662803187 L 966 418.9682153001895 L 967 419.66424779314093 L 968 420.35714002189656 L 969 421.04676880744046 L 970 421.73301155091593 L 971 422.41574625542046 L 972 423.09485154769357 L 973 423.770206699694 L 974 424.4416916500625 L 975 425.10918702546525 L 976 425.77257416181567 L 977 426.4317351253701 L 978 427.08655273369317 L 979 427.7369105764904 L 980 428.38269303630256 L 981 429.0237853090598 L 982 429.660073424491 L 983 430.2914442663847 L 984 430.9177855926986 L 985 431.5389860555132 L 986 432.15493522082676 L 987 432.76552358818765 L 988 433.370642610161 L 989 433.97018471162534 L 990 434.5640433088973 L 991 435.1521128286792 L 992 435.7342887268276 L 993 436.3104675069381 L 994 436.88054673874524 L 995 437.4444250763314 L 996 438.0020022761438 L 997 438.55317921481566 L 998 439.0978579067871 L 999 439.63594152172533 L 1000 440.1673344017381 L 1001 440.69194207837955 L 1002 441.2096712894446 L 1003 441.7204299955481 L 1004 442.22412739648746 L 1005 442.7206739473847 L 1006 443.20998137460515 L 1007 443.69196269145044 L 1008 444.16653221362265 L 1009 444.63360557445657 L 1010 445.09309973991816 L 1011 445.544933023366 L 1012 445.98902510007304 L 1013 446.4252970215063 L 1014 446.8536712293622 L 1015 447.2740715693542 L 1016 447.6864233047513 L 1017 448.09065312966436 L 1018 448.48668918207795 L 1019 448.8744610566259 L 1020 449.25389981710725 L 1021 449.6249380087418 L 1022 449.98750967016156 L 1023 450.3415503451372 L 1024 450.68699709403666 L 1025 451.0237885050144 L 1026 451.3518647049289 L 1027 451.67116736998645 L 1028 451.9816397361097 L 1029 452.2832266090291 L 1030 452.57587437409484 L 1031 452.8595310058083 L 1032 453.134146077071 L 1033 453.3996707681491 L 1034 453.6560578753523 L 1035 453.9032618194258 L 1036 454.14123865365264 L 1037 454.369946071667 L 1038 454.5893434149747 L 1039 454.7993916801814 L 1040 455.00005352592643 L 1041 455.1912932795213 L 1042 455.37307694329127 L 1043 455.54537220061934 L 1044 455.70814842169136 L 1045 455.8613766689411 L 1046 456.00502970219486 L 1047 456.139081983514 L 1048 456.26350968173483 L 1049 456.37829067670543 L 1050 456.48340456321785 L 1051 456.5788326546358 L 1052 456.6645579862166 L 1053 456.740565318127 L 1054 456.8068411381527 L 1055 456.8633736641002 L 1056 456.9101528458916 L 1057 456.9471703673511 L 1058 456.9744196476835 L 1059 456.991895842644 L 1060 456.9995958453996 L 1061 456.99751828708116 L 1062 456.98566353702694 L 1063 456.9640337027168 L 1064 456.9326326293977 L 1065 456.8914658993999 L 1066 456.84054083114484 L 1067 456.77986647784377 L 1068 456.7094536258887 L 1069 456.62931479293445 L 1070 456.5394642256736 L 1071 456.43991789730376 L 1072 456.33069350468764 L 1073 456.2118104652075 L 1074 456.08328991331285 L 1075 455.94515469676315 L 1076 455.79742937256657 L 1077 455.64014020261385 L 1078 455.4733151490098 L 1079 455.29698386910235 L 1080 455.11117771021026 L 1081 454.91592970405014 L 1082 454.71127456086447 L 1083 454.4972486632507 L 1084 454.27389005969366 L 1085 454.0412384578013 L 1086 453.79933521724564 L 1087 453.5482233424101 L 1088 453.28794747474444 L 1089 453.0185538848285 L 1090 452.74009046414653 L 1091 452.4526067165733 L 1092 452.1561537495734 L 1093 451.8507842651157 L 1094 451.53655255030435 L 1095 451.21351446772775 L 1096 450.8817274455275 L 1097 450.54125046718923 L 1098 450.19214406105687 L 1099 449.83447028957204 L 1100 449.4682927382411 L 1101 449.09367650433074 L 1102 448.71068818529614 L 1103 448.31939586694074 L 1104 447.9198691113129 L 1105 447.5121789443391 L 1106 447.0963978431975 L 1107 446.6725997234332 L 1108 446.24085992581814 L 1109 445.80125520295684 L 1110 445.3538637056424 L 1111 444.89876496896267 L 1112 444.43603989816097 L 1113 443.9657707542536 L 1114 443.48804113940525 L 1115 443.002935982067 L 1116 442.51054152187817 L 1117 442.0109452943349 L 1118 441.5042361152283 L 1119 440.9905040648558 L 1120 440.4698404720067 L 1121 439.9423378977261 L 1122 439.4080901188602 L 1123 438.86719211138495 L 1124 438.3197400335213 L 1125 437.76583120864143 L 1126 437.20556410796644 L 1127 436.6390383330608 L 1128 436.0663545981259 L 1129 435.487614712095 L 1130 434.9029215605349 L 1131 434.31237908735466 L 1132 433.7160922763277 L 1133 433.1141671324276 L 1134 432.50671066298366 L 1135 431.8938308586571 L 1136 431.2756366742435 L 1137 430.652238009303 L 1138 430.0237456886231 L 1139 429.3902714425166 L 1140 428.751927886959 L 1141 428.1088285035676 L 1142 427.46108761942804 L 1143 426.8088203867693 L 1144 426.15214276249264 L 1145 425.4911714875573 L 1146 424.82602406622703 L 1147 424.15681874518015 L 1148 423.48367449248923 L 1149 422.80671097647075 L 1150 422.1260485444112 L 1151 421.44180820117265 L 1152 420.7541115876805 L 1153 420.0630809592993 L 1154 419.36883916409863 L 1155 418.6715096210136 L 1156 417.9712162979042 L 1157 417.2680836895169 L 1158 416.56223679535225 L 1159 415.85380109744364 L 1160 415.1429025380493 L 1161 414.4296674972631 L 1162 413.71422277054705 L 1163 412.99669554619067 L 1164 412.27721338269936 L 1165 411.55590418611854 L 1166 410.8328961872946 L 1167 410.1083179190785 L 1168 409.38229819347634 L 1169 408.65496607874957 L 1170 407.9264508764694 L 1171 407.196882098531 L 1172 406.4663894441289 L 1173 405.7351027767 L 1174 405.0031521008369 L 1175 404.27066753917666 L 1176 403.53777930926736 L 1177 402.8046177004199 L 1178 402.07131305054486 L 1179 401.33799572298193 L 1180 400.60479608332486 L 1181 399.8718444762449 L 1182 399.1392712023198 L 1183 398.4072064948687 L 1184 397.67578049680054 L 1185 396.9451232374775 L 1186 396.21536460959913 L 1187 395.4866343461105 L 1188 394.7590619971392 L 1189 394.0327769069644 L 1190 393.30790819102265 L 1191 392.5845847129543 L 1192 391.862935061695 L 1193 391.14308752861524 L 1194 390.425170084714 L 1195 389.7093103578683 L 1196 388.9956356101441 L 1197 388.2842727151727 L 1198 387.5753481355951 L 1199 386.86898790058046 L 1200 386.1653175834214 L 1201 385.46446227921 L 1202 384.76654658259866 L 1203 384.0716945656512 L 1204 383.3800297557848 L 1205 382.69167511381085 L 1206 382.00675301207485 L 1207 381.325385212702 L 1208 380.64769284595127 L 1209 379.9737963886804 L 1210 379.3038156429296 L 1211 378.637869714622 L 1212 377.9760769923914 L 1213 377.3185551265341 L 1214 376.6654210080943 L 1215 376.01679074808436 L 1216 375.3727796568419 L 1217 374.7335022235317 L 1218 374.09907209579137 L 1219 373.46960205952814 L 1220 372.84520401886874 L 1221 372.2259889762644 L 1222 371.61206701275887 L 1223 371.0035472684173 L 1224 370.4005379229253 L 1225 369.8031461763559 L 1226 369.21147823011273 L 1227 368.62563926805046 L 1228 368.04573343777474 L 1229 367.47186383212835 L 1230 366.9041324708629 L 1231 366.34264028250277 L 1232 365.787487086403 L 1233 365.23877157500266 L 1234 364.6965912962811 L 1235 364.16104263641535 L 1236 363.6322208026454 L 1237 363.1102198063492 L 1238 362.5951324463289 L 1239 362.0870502923142 L 1240 361.5860636686831 L 1241 361.09226163840503 L 1242 360.6057319872068 L 1243 360.1265612079673 L 1244 359.6548344853409 L 1245 359.1906356806136 L 1246 358.7340473167949 L 1247 358.2851505639468 L 1248 357.84402522475415 L 1249 357.4107497203379 L 1250 356.985401076313 L 1251 356.5680549090962 L 1252 356.1587854124623 L 1253 355.75766534435496 L 1254 355.3647660139523 L 1255 354.9801572689891 L 1256 354.6039074833407 L 1257 354.2360835448667 L 1258 353.8767508435208 L 1259 353.5259732597259 L 1260 353.18381315301724 L 1261 352.8503313509573 L 1262 352.52558713832127 L 1263 352.20963824655854 L 1264 351.90254084352875 L 1265 351.60434952351693 L 1266 351.315117297528 L 1267 351.0348955838625 L 1268 350.7637341989762 L 1269 350.50168134862304 L 1270 350.2487836192864 L 1271 350.00508596989664 L 1272 349.7706317238383 L 1273 349.5454625612488 L 1274 349.3296185116085 L 1275 349.12313794662435 L 1276 348.9260575734086 L 1277 348.738412427953 L 1278 348.56023586890024 L 1279 348.39155957161375 L 1280 348.2324135225467 L 1281 348.08282601391085 L 1282 347.942823638647 L 1283 347.8124312856977 L 1284 347.69167213558217 L 1285 347.5805676562758 L 1286 347.47913759939337 L 1287 347.38739999667786 L 1288 347.3053711567948 L 1289 347.23306566243303 L 1290 347.1704963677122 L 1291 347.1176743958977 L 1292 347.07460913742324 L 1293 347.0413082482213 L 1294 347.0177776483622 L 1295 347.0040215210018 L 1296 347.00004231163757 L 1297 347.00584072767407 L 1298 347.02141573829704 L 1299 347.04676457465666 L 1300 347.08188273036 L 1301 347.12676396227187 L 1302 347.1814002916247 L 1303 347.24578200543726 L 1304 347.319897658241 L 1305 347.40373407411516 L 1306 347.4972763490289 L 1307 347.6005078534906 L 1308 347.71341023550485 L 1309 347.8359634238344 L 1310 347.9681456315685 L 1311 348.10993335999626 L 1312 348.2613014027836 L 1313 348.42222285045517 L 1314 348.5926690951772 L 1315 348.77260983584415 L 1316 348.9620130834648 L 1317 349.1608451668496 L 1318 349.3690707385963 L 1319 349.58665278137374 L 1320 349.8135526145032 L 1321 350.0497299008339 L 1322 350.2951426539148 L 1323 350.5497472454585 L 1324 350.8134984130969 L 1325 351.08634926842836 L 1326 351.36825130535254 L 1327 351.65915440869435 L 1328 351.9590068631128 L 1329 352.26775536229434 L 1330 352.58534501843036 L 1331 352.91171937197373 L 1332 353.24682040167687 L 1333 353.5905885349059 L 1334 353.9429626582314 L 1335 354.30388012829303 L 1336 354.67327678293526 L 1337 355.05108695261487 L 1338 355.43724347207433 L 1339 355.83167769228277 L 1340 356.2343194926401 L 1341 356.64509729344195 L 1342 357.0639380686059 L 1343 357.4907673586526 L 1344 357.9255092839437 L 1345 358.3680865581706 L 1346 358.8184205020947 L 1347 359.2764310575344 L 1348 359.74203680159707 L 1349 360.21515496115455 L 1350 360.6957014275578 L 1351 361.1835907715896 L 1352 361.6787362586516 L 1353 362.18104986418336 L 1354 362.6904422893115 L 1355 363.20682297672397 L 1356 363.73010012676986 L 1357 364.2601807137786 L 1358 364.79697050259716 L 1359 365.3403740653438 L 1360 365.8902947983716 L 1361 366.4466349394433 L 1362 367.00929558510995 L 1363 367.5781767082943 L 1364 368.15317717607286 L 1365 368.73419476765434 L 1366 369.32112619255315 L 1367 369.91386710895017 L 1368 370.51231214224396 L 1369 371.1163549037825 L 1370 371.7258880097766 L 1371 372.34080310039093 L 1372 372.96099085900624 L 1373 373.5863410316548 L 1374 374.2167424466192 L 1375 374.85208303419734 L 1376 375.4922498466248 L 1377 376.1371290781541 L 1378 376.78660608528713 L 1379 377.44056540715513 L 1380 378.0988907860457 L 1381 378.7614651880698 L 1382 379.42817082396743 L 1383 380.09888917004844 L 1384 380.77350098926183 L 1385 381.4518863523946 L 1386 382.13392465939114 L 1387 382.8194946607928 L 1388 383.5084744792943 L 1389 384.20074163140873 L 1390 384.89617304924377 L 1391 385.5946451023786 L 1392 386.29603361984346 L 1393 387.00021391219394 L 1394 387.70706079367665 L 1395 388.4164486044858 L 1396 389.12825123310085 L 1397 389.8423421387071 L 1398 390.5585943736911 L 1399 391.27688060620824 L 1400 391.99707314282045 L 1401 392.71904395119543 L 1402 393.4426646828689 L 1403 394.1678066960612 L 1404 394.8943410785461 L 1405 395.6221386705696 L 1406 396.35107008780943 L 1407 397.0810057443783 L 1408 397.81181587585934 L 1409 398.54337056237637 L 1410 399.2755397516898 L 1411 400.0081932823161 L 1412 400.7412009066688 L 1413 401.4744323142114 L 1414 402.2077571546251 L 1415 402.94104506098085 L 1416 403.67416567291514 L 1417 404.40698865980596 L 1418 405.13938374394087 L 1419 405.8712207236787 L 1420 406.6023694965945 L 1421 407.33270008261013 L 1422 408.06208264710057 L 1423 408.79038752397497 L 1424 409.51748523872936 L 1425 410.2432465314624 L 1426 410.96754237985584 L 1427 411.69024402211113 L 1428 412.41122297983935 L 1429 413.13035108090276 L 1430 413.84750048219934 L 1431 414.562543692391 L 1432 415.27535359456834 L 1433 415.98580346884796 L 1434 416.6937670149014 L 1435 417.399118374407 L 1436 418.1017321534256 L 1437 418.8014834446909 L 1438 419.49824784981666 L 1439 420.19190150141054 L 1440 420.88232108509425 L 1441 421.5693838614273 L 1442 422.25296768772523 L 1443 422.93295103977505 L 1444 423.60921303343866 L 1445 424.2816334461422 L 1446 424.95009273825053 L 1447 425.6144720743161 L 1448 426.27465334420725 L 1449 426.9305191841032 L 1450 427.58195299736 L 1451 428.22883897523786 L 1452 428.87106211748846 L 1453 429.5085082528006 L 1454 430.14106405909536 L 1455 430.7686170836733 L 1456 431.3910557632053 L 1457 432.0082694435651 L 1458 432.62014839950206 L 1459 433.2265838541464 L 1460 433.82746799834786 L 1461 434.4226940098414 L 1462 435.01215607223673 L 1463 435.59574939383117 L 1464 436.1733702262375 L 1465 436.74491588282945 L 1466 437.31028475699515 L 1467 437.8693763402018 L 1468 438.4220912398628 L 1469 438.96833119700693 L 1470 439.50799910374747 L 1471 440.0409990205442 L 1472 440.56723619326027 L 1473 441.0866170700067 L 1474 441.599049317773 L 1475 442.1044418388427 L 1476 442.6027047869875 L 1477 443.09374958344 L 1478 443.5774889326409 L 1479 444.05383683775756 L 1480 444.52270861597265 L 1481 444.98402091353813 L 1482 445.43769172059405 L 1483 445.88364038574707 L 1484 446.3217876304091 L 1485 446.7520555628908 L 1486 447.1743676922482 L 1487 447.58864894188196 L 1488 447.99482566288293 L 1489 448.39282564712624 L 1490 448.78257814010743 L 1491 449.1640138535207 L 1492 449.5370649775773 L 1493 449.90166519305984 L 1494 450.25774968311254 L 1495 450.6052551447638 L 1496 450.9441198001802 L 1497 451.2742834076489 L 1498 451.5956872722868 L 1499 451.9082742564758 L 1500 452.2119887900195 L 1501 452.50677688002315 L 1502 452.7925861204916 L 1503 453.0693657016458 L 1504 453.33706641895594 L 1505 453.5956406818884 L 1506 453.8450425223664 L 1507 454.08522760294176 L 1508 454.31615322467724 L 1509 454.53777833473714 L 1510 454.75006353368553 L 1511 454.9529710824907 L 1512 455.1464649092338 L 1513 455.3305106155221 L 1514 455.5050754826035 L 1515 455.67012847718365 L 1516 455.82564025694273 L 1517 455.9715831757515 L 1518 456.10793128858677 L 1519 456.234660356143 L 1520 456.35174784914204 L 1521 456.4591729523379 L 1522 456.55691656821733 L 1523 456.64496132039505 L 1524 456.7232915567025 L 1525 456.79189335197066 L 1526 456.85075451050545 L 1527 456.899864568256 L 1528 456.9392147946747 L 1529 456.9687981942693 L 1530 456.98860950784683 L 1531 456.998645213448 L 1532 456.9989035269739 L 1533 456.98938440250276 L 1534 456.97008953229835 L 1535 456.941022346509 L 1536 456.90218801255776 L 1537 456.853593434224 L 1538 456.79524725041597 L 1539 456.7271598336348" stroke-linecap="round" stroke-linejoin="round" stroke-miterlimit="10" stroke-width="6"/></g></svg>